#N canvas 2177 313 834 561 12;
#X obj 100 101 cnv 15 15 15 empty \$0-box empty 20 12 0 14 -127008
-66577 0;
#X obj 285 305 t b f;
#X obj 227 340 +;
#X floatatom 227 239 5 0 0 0 - - -;
#X floatatom 286 240 5 0 0 0 - - -;
#X msg 227 442 color \$1;
#X obj 227 476 s \$0-box;
#X obj 288 172 f 255;
#X obj 288 206 -;
#X obj 288 138 t b f;
#X obj 227 374 * -1;
#X obj 227 272 i;
#X obj 286 273 i;
#X obj 227 306 << 16;
#X obj 227 408 - 1;
#X obj 227 35 clip -1 1;
#X obj 227 1 inlet;
#X obj 227 69 + 1;
#X obj 227 103 * 127.5;
#X connect 1 0 2 0;
#X connect 1 1 2 1;
#X connect 2 0 10 0;
#X connect 3 0 11 0;
#X connect 4 0 12 0;
#X connect 5 0 6 0;
#X connect 7 0 8 0;
#X connect 8 0 4 0;
#X connect 9 0 7 0;
#X connect 9 1 8 1;
#X connect 10 0 14 0;
#X connect 11 0 13 0;
#X connect 12 0 1 0;
#X connect 13 0 2 0;
#X connect 14 0 5 0;
#X connect 15 0 17 0;
#X connect 16 0 15 0;
#X connect 17 0 18 0;
#X connect 18 0 9 0;
#X connect 18 0 3 0;
#X coords 0 -1 1 1 16 16 2 100 100;
