#N canvas 2448 209 1009 590 12;
#X obj 145 186 hoalight;
#X obj 145 138 bng 15 250 50 0 empty empty empty 17 7 0 10 -262144
-1 -1;
#X floatatom 266 120 5 0 0 2 azimuth - -;
#X floatatom 335 124 5 0 0 2 elevation - -;
#X floatatom 410 123 5 0 0 2 radius - -;
#X text 65 32 standard 8 channel setting;
#X msg 70 68 define_loudspeakers 2 -135 -90 -45 0 45 90 135 180;
#X obj 145 220 unpack 0 0 0 0 0 0 0 0;
#X obj 145 264 vsl 15 128 -1 1 0 0 empty empty empty 0 -9 0 10 -262144
-1 -1 6331 1;
#X obj 166 264 vsl 15 128 -1 1 0 0 empty empty empty 0 -9 0 10 -262144
-1 -1 6349 1;
#X obj 188 265 vsl 15 128 -1 1 0 0 empty empty empty 0 -9 0 10 -262144
-1 -1 6378 1;
#X obj 209 265 vsl 15 128 -1 1 0 0 empty empty empty 0 -9 0 10 -262144
-1 -1 6403 1;
#X obj 231 265 vsl 15 128 -1 1 0 0 empty empty empty 0 -9 0 10 -262144
-1 -1 6408 1;
#X obj 252 265 vsl 15 128 -1 1 0 0 empty empty empty 0 -9 0 10 -262144
-1 -1 6390 1;
#X obj 274 266 vsl 15 128 -1 1 0 0 empty empty empty 0 -9 0 10 -262144
-1 -1 6361 1;
#X obj 295 266 vsl 15 128 -1 1 0 0 empty empty empty 0 -9 0 10 -262144
-1 -1 6336 1;
#X msg 42 146 order \$1;
#X floatatom 41 117 5 0 0 0 - - -;
#X text 129 409 -135;
#X text 298 411 180;
#X connect 0 0 7 0;
#X connect 1 0 0 0;
#X connect 2 0 0 1;
#X connect 2 0 1 0;
#X connect 3 0 0 2;
#X connect 3 0 1 0;
#X connect 4 0 0 3;
#X connect 4 0 1 0;
#X connect 6 0 0 0;
#X connect 7 0 8 0;
#X connect 7 1 9 0;
#X connect 7 2 10 0;
#X connect 7 3 11 0;
#X connect 7 4 12 0;
#X connect 7 5 13 0;
#X connect 7 6 14 0;
#X connect 7 7 15 0;
#X connect 16 0 0 0;
#X connect 17 0 16 0;
