#N canvas 2088 190 1102 741 12;
#X obj 149 250 hoalight;
#X obj 142 168 bng 15 250 50 0 empty empty empty 17 7 0 10 -262144
-1 -1;
#X floatatom 263 150 5 0 0 2 azimuth - -;
#X floatatom 407 153 5 0 0 2 radius - -;
#X msg 39 176 order \$1;
#X floatatom 38 147 5 0 0 0 - - -;
#X text 23 12 2D;
#X text 533 16 3D;
#X text 59 62 standard 8-channel setting;
#X obj 590 221 hoalight;
#X obj 590 173 bng 15 250 50 0 empty empty empty 17 7 0 10 -262144
-1 -1;
#X floatatom 711 155 5 0 0 2 azimuth - -;
#X floatatom 780 159 5 0 0 2 elevation - -;
#X floatatom 855 158 5 0 0 2 radius - -;
#X msg 487 181 order \$1;
#X floatatom 487 152 5 0 0 0 - - -;
#X text 226 219 elevation will be ignored when 2D;
#X msg 19 261 optim MaxRe;
#X msg 21 297 optim InPhase;
#X msg 19 336 optim None;
#X msg 67 98 define_loudspeakers 2 0 45 90 135 180 -135 -90 -45;
#N canvas 2145 364 835 575 amp 0;
#X obj 213 54 route 0 1 2 3 4 5 6 7;
#X obj 213 21 inlet;
#X obj 214 116 color;
#X obj 262 152 color;
#X obj 303 191 color;
#X obj 261 226 color;
#X obj 212 264 color;
#X obj 125 198 color;
#X obj 160 156 color;
#X obj 154 233 color;
#X connect 0 0 2 0;
#X connect 0 1 3 0;
#X connect 0 2 4 0;
#X connect 0 3 5 0;
#X connect 0 4 6 0;
#X connect 0 5 9 0;
#X connect 0 6 7 0;
#X connect 0 7 8 0;
#X connect 1 0 0 0;
#X coords 0 -1 1 1 250 200 2 100 100;
#X restore 149 313 pd amp;
#N canvas 2597 802 450 348 amp 0;
#X obj 97 67 route 0 1 2 3 4 5 6 7 8 9 10;
#X obj 97 34 inlet;
#X obj 163 112 color;
#X obj 264 112 color;
#X obj 319 190 color;
#X obj 272 283 color;
#X obj 163 282 color;
#X obj 105 193 color;
#X obj 170 166 color;
#X obj 254 163 color;
#X obj 256 229 color;
#X obj 173 231 color;
#X obj 213 197 color;
#X connect 0 0 2 0;
#X connect 0 1 3 0;
#X connect 0 2 4 0;
#X connect 0 3 5 0;
#X connect 0 4 6 0;
#X connect 0 5 7 0;
#X connect 0 6 8 0;
#X connect 0 7 9 0;
#X connect 0 8 10 0;
#X connect 0 9 11 0;
#X connect 0 10 12 0;
#X connect 1 0 0 0;
#X coords 0 -1 1 1 250 210 1 100 100;
#X restore 590 305 pd amp;
#X msg 478 300 optim None;
#X msg 479 272 optim InPhase;
#X msg 478 241 optim MaxRe;
#X msg 577 77 define_loudspeakers 3 -30 0 30 0 90 0 150 0 -150 0 -90
0 -45 45 45 45 135 45 -135 45 0 90, f 24;
#X connect 0 0 21 0;
#X connect 1 0 0 0;
#X connect 2 0 0 1;
#X connect 2 0 1 0;
#X connect 3 0 0 3;
#X connect 3 0 1 0;
#X connect 4 0 0 0;
#X connect 5 0 4 0;
#X connect 9 0 22 0;
#X connect 10 0 9 0;
#X connect 11 0 9 1;
#X connect 11 0 10 0;
#X connect 12 0 9 2;
#X connect 12 0 10 0;
#X connect 13 0 9 3;
#X connect 13 0 10 0;
#X connect 14 0 9 0;
#X connect 15 0 14 0;
#X connect 17 0 0 0;
#X connect 18 0 0 0;
#X connect 19 0 0 0;
#X connect 20 0 0 0;
#X connect 23 0 9 0;
#X connect 24 0 9 0;
#X connect 25 0 9 0;
#X connect 26 0 9 0;
#X coords 0 0 1 1 85 60 0;
