#N canvas 2088 190 1102 741 12;
#X obj 149 250 hoalight;
#X obj 142 168 bng 15 250 50 0 empty empty empty 17 7 0 10 -262144
-1 -1;
#X floatatom 263 150 5 0 0 2 azimuth - -;
#X floatatom 407 153 5 0 0 2 radius - -;
#X msg 39 176 order \$1;
#X floatatom 38 147 5 0 0 0 - - -;
#X text 23 12 2D;
#X text 533 16 3D;
#X text 59 62 standard 8-channel setting;
#X obj 590 221 hoalight;
#X obj 590 173 bng 15 250 50 0 empty empty empty 17 7 0 10 -262144
-1 -1;
#X floatatom 711 155 5 0 0 2 azimuth - -;
#X floatatom 780 159 5 0 0 2 elevation - -;
#X floatatom 855 158 5 0 0 2 radius - -;
#X msg 487 181 order \$1;
#X floatatom 487 152 5 0 0 0 - - -;
#X text 226 219 elevation will be ignored when 2D;
#X text 582 9 high ele 90 - azi 0;
#X text 584 26 mid ele 45 - azi -135 -45 45 135;
#X text 583 42 low ele 0 - azi -120 -90 -30 30 90 120;
#X msg 19 261 optim MaxRe;
#X msg 21 297 optim InPhase;
#X msg 19 336 optim None;
#X msg 67 98 define_loudspeakers 2 0 45 90 135 180 -135 -90 -45;
#N canvas 222 184 835 575 amp 0;
#X floatatom 212 115 5 0 0 0 - - -;
#X floatatom 260 151 5 0 0 0 - - -;
#X floatatom 304 189 5 0 0 0 - - -;
#X floatatom 264 237 5 0 0 0 - - -;
#X floatatom 213 276 5 0 0 0 - - -;
#X floatatom 158 241 5 0 0 0 - - -;
#X floatatom 112 198 5 0 0 0 - - -;
#X floatatom 148 155 5 0 0 0 - - -;
#X obj 213 54 route 0 1 2 3 4 5 6 7;
#X obj 213 21 inlet;
#X connect 8 0 0 0;
#X connect 8 1 1 0;
#X connect 8 2 2 0;
#X connect 8 3 3 0;
#X connect 8 4 4 0;
#X connect 8 5 5 0;
#X connect 8 6 6 0;
#X connect 8 7 7 0;
#X connect 9 0 8 0;
#X coords 0 -1 1 1 250 200 1 100 100;
#X restore 149 313 pd amp;
#N canvas 2597 802 450 348 amp 0;
#X floatatom 173 124 5 0 0 0 - - -;
#X floatatom 254 123 5 0 0 0 - - -;
#X floatatom 308 185 5 0 0 0 - - -;
#X floatatom 264 258 5 0 0 0 - - -;
#X floatatom 183 260 5 0 0 0 - - -;
#X floatatom 116 180 5 0 0 0 - - -;
#X obj 98 79 route 0 1 2 3 4 5 6 7 8 9 10;
#X obj 98 46 inlet;
#X connect 6 0 0 0;
#X connect 6 1 1 0;
#X connect 6 2 2 0;
#X connect 6 3 3 0;
#X connect 6 4 4 0;
#X connect 6 5 5 0;
#X connect 7 0 6 0;
#X coords 0 -1 1 1 250 210 1 100 100;
#X restore 590 304 pd amp;
#X msg 478 300 optim None;
#X msg 479 272 optim InPhase;
#X msg 478 241 optim MaxRe;
#X obj 664 253 print;
#X msg 546 95 define_loudspeakers 3 0 0 180 0, f 24;
#X connect 0 0 24 0;
#X connect 1 0 0 0;
#X connect 2 0 0 1;
#X connect 2 0 1 0;
#X connect 3 0 0 3;
#X connect 3 0 1 0;
#X connect 4 0 0 0;
#X connect 5 0 4 0;
#X connect 9 0 25 0;
#X connect 9 0 29 0;
#X connect 10 0 9 0;
#X connect 11 0 9 1;
#X connect 11 0 10 0;
#X connect 12 0 9 2;
#X connect 12 0 10 0;
#X connect 13 0 9 3;
#X connect 13 0 10 0;
#X connect 14 0 9 0;
#X connect 15 0 14 0;
#X connect 20 0 0 0;
#X connect 21 0 0 0;
#X connect 22 0 0 0;
#X connect 23 0 0 0;
#X connect 26 0 9 0;
#X connect 27 0 9 0;
#X connect 28 0 9 0;
#X connect 30 0 9 0;
